<svg width="33" height="32" viewBox="0 0 33 32" fill="none" xmlns="http://www.w3.org/2000/svg">
<g clip-path="url(#clip0_135_2296)">
<path d="M16.5003 2.66669C9.14033 2.66669 3.16699 8.64002 3.16699 16C3.16699 23.36 9.14033 29.3334 16.5003 29.3334C23.8603 29.3334 29.8337 23.36 29.8337 16C29.8337 8.64002 23.8603 2.66669 16.5003 2.66669ZM12.887 21.72L8.10033 16.9334C7.58033 16.4134 7.58033 15.5734 8.10033 15.0534C8.62033 14.5334 9.46033 14.5334 9.98033 15.0534L13.8337 18.8934L23.007 9.72002C23.527 9.20002 24.367 9.20002 24.887 9.72002C25.407 10.24 25.407 11.08 24.887 11.6L14.767 21.72C14.2603 22.24 13.407 22.24 12.887 21.72Z" fill="white"/>
</g>
<defs>
<clipPath id="clip0_135_2296">
<rect width="32" height="32" fill="white" transform="translate(0.5)"/>
</clipPath>
</defs>
</svg>
