<svg width="25" height="24" viewBox="0 0 25 24" fill="none" xmlns="http://www.w3.org/2000/svg">
<g clip-path="url(#clip0_184_1132)">
<path d="M20.5 2H4.5C3.4 2 2.51 2.9 2.51 4L2.5 22L6.5 18H20.5C21.6 18 22.5 17.1 22.5 16V4C22.5 2.9 21.6 2 20.5 2ZM8.5 14H6.5V12H8.5V14ZM8.5 11H6.5V9H8.5V11ZM8.5 8H6.5V6H8.5V8ZM14.5 14H11.5C10.95 14 10.5 13.55 10.5 13C10.5 12.45 10.95 12 11.5 12H14.5C15.05 12 15.5 12.45 15.5 13C15.5 13.55 15.05 14 14.5 14ZM17.5 11H11.5C10.95 11 10.5 10.55 10.5 10C10.5 9.45 10.95 9 11.5 9H17.5C18.05 9 18.5 9.45 18.5 10C18.5 10.55 18.05 11 17.5 11ZM17.5 8H11.5C10.95 8 10.5 7.55 10.5 7C10.5 6.45 10.95 6 11.5 6H17.5C18.05 6 18.5 6.45 18.5 7C18.5 7.55 18.05 8 17.5 8Z" fill="#1D4ED8"/>
</g>
<defs>
<clipPath id="clip0_184_1132">
<rect width="24" height="24" fill="white" transform="translate(0.5)"/>
</clipPath>
</defs>
</svg>
