<svg width="36" height="36" viewBox="0 0 36 36" fill="none" xmlns="http://www.w3.org/2000/svg">
<path d="M18.0005 21C20.4905 21 22.5005 18.99 22.5005 16.5V7.5C22.5005 5.01 20.4905 3 18.0005 3C15.5105 3 13.5005 5.01 13.5005 7.5V16.5C13.5005 18.99 15.5105 21 18.0005 21ZM26.8655 16.5C26.1305 16.5 25.5155 17.04 25.3955 17.775C24.7805 21.3 21.7055 24 18.0005 24C14.2955 24 11.2205 21.3 10.6055 17.775C10.4855 17.04 9.87047 16.5 9.13547 16.5C8.22047 16.5 7.50047 17.31 7.63547 18.21C8.37047 22.71 11.9705 26.235 16.5005 26.88V30C16.5005 30.825 17.1755 31.5 18.0005 31.5C18.8255 31.5 19.5005 30.825 19.5005 30V26.88C24.0305 26.235 27.6305 22.71 28.3655 18.21C28.5155 17.31 27.7805 16.5 26.8655 16.5Z" fill="#1D4ED8"/>
</svg>
