<svg width="19" height="19" viewBox="0 0 19 19" fill="none" xmlns="http://www.w3.org/2000/svg">
<path d="M9.57488 2.42496C7.89988 0.749962 5.39155 0.408295 3.37488 1.39163L6.39988 4.41663C6.72488 4.74163 6.72488 5.26663 6.39988 5.59163L5.07488 6.91663C4.74988 7.24996 4.22488 7.24996 3.89988 6.91663L0.874881 3.89163C-0.100119 5.91663 0.241547 8.4083 1.91655 10.0833C3.46655 11.6333 5.73321 12.0416 7.65821 11.3166L14.2915 17.95C15.1499 18.8083 16.5332 18.8083 17.3832 17.95C18.2415 17.0916 18.2415 15.7083 17.3832 14.8583L10.7832 8.24996C11.5499 6.29996 11.1499 3.99996 9.57488 2.42496Z" fill="white"/>
</svg>
