<svg width="21" height="20" viewBox="0 0 21 20" fill="none" xmlns="http://www.w3.org/2000/svg">
<g clip-path="url(#clip0_184_1127)">
<path d="M10.575 2.42499C8.9 0.749992 6.39167 0.408326 4.375 1.39166L7.4 4.41666C7.725 4.74166 7.725 5.26666 7.4 5.59166L6.075 6.91666C5.75 7.24999 5.225 7.24999 4.9 6.91666L1.875 3.89166C0.900003 5.91666 1.24167 8.40833 2.91667 10.0833C4.46667 11.6333 6.73334 12.0417 8.65834 11.3167L15.2917 17.95C16.15 18.8083 17.5333 18.8083 18.3833 17.95C19.2417 17.0917 19.2417 15.7083 18.3833 14.8583L11.7833 8.24999C12.55 6.29999 12.15 3.99999 10.575 2.42499Z" fill="#1D4ED8"/>
</g>
<defs>
<clipPath id="clip0_184_1127">
<rect width="20" height="20" fill="white" transform="translate(0.5)"/>
</clipPath>
</defs>
</svg>
