<svg width="19" height="16" viewBox="0 0 19 16" fill="none" xmlns="http://www.w3.org/2000/svg">
<path d="M9.5 4C10.6046 4 11.5 3.10457 11.5 2C11.5 0.89543 10.6046 0 9.5 0C8.39543 0 7.5 0.89543 7.5 2C7.5 3.10457 8.39543 4 9.5 4Z" fill="#1D4ED8"/>
<path d="M18.5 10.94C18.5 10.44 18.14 10.01 17.65 9.96C15.77 9.75 14.16 8.83 12.9 7.33L11.56 5.73C11.18 5.26 10.62 5 10.03 5H8.98C8.39 5 7.83 5.26 7.45 5.72L6.11 7.32C4.86 8.82 3.24 9.74 1.36 9.95C0.86 10.01 0.5 10.44 0.5 10.94C0.5 11.54 1.03 12.01 1.63 11.94C3.93 11.67 5.95 10.55 7.5 8.75V11L3.74 12.5C3.09 12.76 2.58 13.33 2.51 14.03C2.41 15.1 3.24 16 4.29 16H6.5V15.5C6.5 14.12 7.62 13 9 13H12C12.28 13 12.5 13.22 12.5 13.5C12.5 13.78 12.28 14 12 14H9C8.17 14 7.5 14.67 7.5 15.5V16H14.6C15.45 16 16.25 15.46 16.45 14.63C16.66 13.74 16.18 12.87 15.37 12.55L11.5 11V8.75C13.06 10.55 15.07 11.66 17.37 11.94C17.97 12 18.5 11.54 18.5 10.94Z" fill="#1D4ED8"/>
</svg>
